Patient4_TMGait_0pt6_01_right_39_EMG.mot
version=1
nRows=33
nColumns=33
inDegrees=no
endheader
time	1LAddLong	2LGlutMax	3LGlutMed	4LIliopsoas	5LSemiMemb	6LBicFemLong	7LRecFem	8LVastMed	9LVastLat	10LGasMed	11LTibAnt	12lTibPost	13LPeroneusLong	14LSol	15LExtDigLong	16LFlexDigLong	17RAddLong	18RGlutMax	19RGlutMed	20RIliopsoas	21RSemiMemb	22RBicFemLong	23RRecFem	24RVastMed	25RVastLat	26RGasMed	27RTibAnt	28RTibPost	29RPeroneusLong	30RSol	31RExtDigLong	32RFlexDigLong
47.32	-0.017853	-0.3923	0.12482	-0.026703	0.006256	-0.024872	0.26642	0.015869	0.067444	-0.040894	0.0383	0.014954	-0.1181	0.20111	0.005646	-0.03067	-0.007935	-0.64545	-0.1767	-0.037079	0.32974	0.46845	0.12619	0.059662	-0.015259	-0.019073	-0.040894	-0.040436	1.4227	-0.11627	-0.003662	-0.002136
47.321	0.001984	-0.39536	0.12131	-0.025024	0.006866	-0.033264	0.019226	0.019989	0.072327	-0.018311	-0.029449	0.019226	-0.099792	0.14404	0.013123	-0.00824	-0.046844	-0.65979	-0.24994	0.003815	0.34653	0.21271	0.073242	0.16083	-0.00946	-0.011292	-0.019836	-0.047455	0.56305	-0.023956	0.009613	-0.00061
47.322	0.007477	-0.41962	0.10574	-0.024109	0.006104	-0.036163	-0.18723	0.02243	0.10086	0.1712	-0.072479	0.025177	-0.099945	0.15076	0.019226	-0.017548	-0.024261	-0.66361	0.31479	-0.039063	0.14587	-0.21286	-0.032806	0.12283	-0.007629	0.002136	0.070343	-0.044861	-0.22095	0.23193	-0.003052	-0.00351
47.323	0.007935	-0.37064	0.10819	0.023346	0.01297	-0.020752	-0.27008	0.022583	0.12329	0.27374	-0.089111	0.017242	-0.10605	0.080566	0.018768	-0.003815	0.051422	-0.63507	0.15961	0.029297	0.16022	-0.6691	-0.014343	-0.042725	-0.008087	0.021515	-0.02594	-0.052338	0.028687	0.3685	0.000763	-0.001526
47.324	0.014954	-0.30853	0.11231	0.037994	0.009766	-0.018921	-0.31311	0.016632	0.17853	0.26947	-0.028534	0.021362	-0.083618	0.059357	-0.00473	-0.005188	0.076599	-0.57846	-0.17166	0.05188	0.19928	-1.3751	0.13351	-0.072327	-0.039978	0.002289	-0.003357	-0.071869	-0.38696	0.10117	0.001221	-0.010681
47.325	0.012512	-0.2681	0.10391	0.036163	0.017853	-0.017395	-0.20493	0.007477	0.2153	0.20325	-0.000153	0.026245	-0.068512	0.05722	-0.022583	-0.010223	0.07843	-0.51819	-0.28366	0.063782	-0.010681	-1.4297	0.27466	-0.058136	-0.023804	-0.053101	0.16876	-0.10269	-1.864	-0.21408	0.009766	-0.014343
47.326	0.015259	-0.15854	0.093536	0.016327	0.01236	-0.005341	-0.11826	-0.003052	0.22812	-0.045319	0.022125	0.028076	-0.087585	0.054321	0.090027	-0.000153	0.00824	-0.37537	0.38696	0.004883	-0.6105	-0.65185	0.38361	0.042267	0.00885	-0.12024	0.12985	-0.15854	-1.7459	-0.43869	-0.002136	-0.016022
47.327	0.018005	-0.11032	0.072632	-0.019531	-0.000153	-0.0177	-0.05249	-0.01709	0.2095	-0.43823	0.050201	0.019531	-0.103	0.034637	0.177	-0.00061	-0.036469	-0.39398	0.513	-0.010223	-0.89554	-0.37949	0.39124	0.13641	-0.00885	-0.12207	0.15457	-0.32837	-1.2955	-0.56869	-0.003204	-0.019989
47.328	0.019531	-0.04425	0.062408	-0.032654	0.008545	-0.01297	-0.010834	-0.012054	0.18173	-0.48019	0.075836	0.023041	-0.13412	0.05127	0.16312	0.003357	-0.036011	-0.45319	-0.083466	-0.050049	0.071716	-0.33371	0.30563	0.04715	-0.039978	-0.19424	0.061798	-0.095367	-0.49942	-0.91431	0.001068	-0.027466
47.329	0.013428	-0.005035	0.039063	-0.024261	0.009918	-0.010376	-0.035706	0.000916	0.15595	-0.31937	0.046844	0.012665	-0.16602	0.073242	0.19104	-0.000763	-0.033875	-0.47714	0.015564	-0.10315	0.39078	-0.41153	0.3801	0.18738	-0.040131	-0.24262	-0.02655	-0.28046	-0.55191	-1.0806	-0.008392	-0.025024
47.33	0.016785	-0.008087	0.034637	-0.021057	0.009918	-0.010681	-0.079651	-0.004578	0.14511	-0.13947	-0.090179	0.01709	-0.15015	0.088501	-0.28839	-0.010071	0.003357	-0.82779	-0.17868	-0.027466	0.42191	0.019989	0.29282	0.050812	-0.080261	-0.1506	-0.090637	0.15259	-0.013275	-0.093079	-0.001526	-0.019836
47.331	0.016174	-0.058136	0.024719	-0.021667	0.012817	-0.016479	-0.14526	-0.007324	0.14236	-0.090027	-0.022888	0.016174	-0.15991	0.14694	-0.22751	-0.015259	-0.001068	-1.1292	-0.44922	0.021667	0.24155	0.014191	0.20554	0.005035	-0.086212	-0.043182	-0.14511	0.19867	0.77667	0.21378	-0.001068	-0.027008
47.332	0.020294	-0.1651	-0.001221	-0.019989	0.01236	-0.024109	-0.24231	-0.011749	0.11627	-0.060425	0.11017	0.012817	-0.17273	0.16861	-0.002747	0.000763	0.00885	-1.2656	-0.53955	0.016479	0.037384	0.24155	0.15823	-0.018463	-0.13748	0.063019	-0.088043	0.082703	0.39139	0.24902	-0.001526	-0.019989
47.333	0.018005	-0.18524	-0.023499	-0.014496	0.009918	-0.026703	-0.3186	0.002136	0.10742	-0.072784	0.32883	-0.00061	-0.15549	0.17471	-0.003662	0.009766	-0.019226	-1.2601	-0.00946	-0.005951	0.21027	0.15213	0.18463	-0.042267	-0.15823	0.13336	-0.003052	-0.055542	0.25497	0.58472	0.004272	-0.024109
47.334	0.013123	-0.242	-0.028076	-0.013275	0.00946	-0.024414	-0.12039	-0.001221	0.11856	-0.10559	0.064087	0.009766	-0.076141	0.1648	0.20447	0.025482	-0.10071	-1.3596	-0.024567	-0.012054	0.42313	0.017853	0.23468	-0.021667	-0.1886	0.10391	0.015564	0.51971	0.41153	0.50949	-0.000763	-0.027771
47.335	0.015717	-0.30991	-0.049896	0.00412	0.003204	-0.018158	0.17151	-0.004883	0.11139	-0.14954	0.18677	-0.002899	-0.003815	0.15488	0.81436	0.028076	-0.093994	-1.5179	-0.37613	-0.008087	0.4689	0.007782	-0.053711	-0.11871	-0.23209	0.079193	0.032043	0.32669	0.289	0.42557	-0.001526	-0.033417
47.336	0.01297	-0.25787	-0.07782	0.037994	0.007172	-0.016937	0.3093	-0.002136	0.09903	-0.12848	0.13123	-0.005341	-0.098114	0.19104	0.94101	0.017395	-0.053101	-1.489	-0.6459	0.082092	-0.3125	-0.011139	-0.14145	-0.38986	-0.13473	0.1265	0.13962	0.046387	-0.2565	0.70282	-0.002747	-0.021362
47.337	0.011292	-0.23666	-0.090179	0.045319	0.010376	-0.012512	0.34012	-0.00885	0.08728	-0.11154	-0.13473	-0.003815	-0.059052	0.23575	0.17288	0.005341	-0.037537	-1.4792	-0.61813	0.19989	-0.54062	-0.37277	0.059052	-0.38559	-0.053558	0.11429	0.13672	-0.096893	-0.289	0.4042	-0.000916	-0.010223
47.338	0.006104	-0.18753	-0.10376	0.016785	0.008698	0.002899	0.28503	-0.002899	0.068665	-0.083923	-0.16083	-0.024414	-0.052185	0.24536	-0.51758	-0.013733	-0.029755	-1.4847	-0.46463	0.15228	-0.2536	-0.60776	-0.0383	-0.083008	0.001221	0.07309	0.18127	-0.079346	-0.71854	0.099792	-0.004578	-0.00824
47.339	0	-0.16968	-0.1207	-0.023041	0.005035	-0.035553	0.22659	-0.010986	0.044098	-0.08728	-0.09552	-0.001678	-0.007172	0.23743	-0.82428	-0.01236	0.012512	-1.4789	-0.71335	0.10574	-0.1561	-0.34637	-0.11047	0.055237	0.050354	0.10254	0.070801	-0.15991	0.34531	0.121	0.002441	-0.01236
47.34	0.010223	-0.21759	-0.13534	-0.033112	0.000458	-0.010834	0.2179	0.003662	0.012665	-0.070343	-0.018005	-0.017853	0.03479	0.20737	-1.1601	-0.024414	0.016479	-1.4677	-0.71228	0.06012	-0.12314	-0.15259	-0.11581	0.19501	0.17593	0.085144	0.13168	-0.037384	0.2092	0.024719	0.000458	-0.017242
47.341	0.00946	-0.21591	-0.15625	-0.018768	0.003357	-0.016937	0.24246	0.000916	-0.011139	-0.016174	-0.023499	-0.00473	-0.031586	0.021515	-0.75714	-0.025177	-0.006714	-1.3855	-0.27588	-0.013275	-0.041962	-0.34424	-0.12894	0.59021	0.41641	0.052643	0.14404	0.13046	0.457	-0.26398	-0.00351	-0.018616
47.342	0.006104	-0.22873	-0.16068	-0.0177	0.007324	-0.00885	0.1059	0.008392	-0.007324	-0.02243	-0.14648	-0.007935	-0.01709	-0.06485	0.2742	-0.018005	-0.05127	-1.2965	0.23392	-0.065765	0.22186	-0.36591	0.045166	0.56107	0.35599	-0.093079	0.16739	0.009613	-0.24872	-0.1355	-0.007019	-0.017548
47.343	0.010376	-0.27298	-0.17441	-0.014496	0.003052	-0.022583	-0.13107	0.008698	-0.009918	-0.031433	-0.10391	-0.001526	-0.040131	0.0177	0.4541	-0.018158	-0.021057	-1.1441	0.28931	-0.066528	0.18906	-0.35416	0.032196	0.3862	0.023651	-0.17075	0.1445	-0.11963	0.88516	0.06012	-0.002747	-0.014343
47.344	0.002441	-0.31265	-0.18677	-0.004425	0.007172	-0.012817	-0.18448	0.011444	-0.038147	-0.009613	-0.092621	-0.005798	-0.042267	0.071716	-0.55435	-0.01236	0.00351	-1.006	0.26352	-0.13672	-0.096741	-0.40802	0.016174	0.1561	-0.039825	-0.11261	0.12283	-0.16266	0.3598	0.14908	-0.004578	-0.016479
47.345	0.002899	-0.3389	-0.20035	0.003967	0.004272	-0.016174	-0.16022	0.017395	-0.041199	0.003204	-0.049591	-0.003052	-0.088959	0.005646	-0.5481	-0.018616	-0.006409	-0.95306	0.57144	-0.17059	0.18249	-0.5722	0.050964	0.052338	-0.027618	-0.071716	0.14282	-0.015564	-0.52216	0.20554	-0.005646	-0.020599
47.346	0.003815	-0.38864	-0.19882	-0.007935	0.004425	-0.005646	-0.005341	0.022888	-0.075378	0.026703	-0.33356	-0.000763	-0.10895	-0.12543	-0.38559	0.001068	0.009918	-0.85968	-0.087433	0.004272	0.29831	-0.66727	0.17075	0.02533	-0.003052	-0.004578	0.03006	-0.051422	0.47897	0.068665	-0.005951	-0.024261
47.347	-0.004272	-0.38315	-0.21286	-0.011444	0.006409	0.004883	0.10117	0.022125	-0.081024	-0.014343	-0.35553	-0.002899	-0.0383	-0.18921	0.097198	-0.010986	0.00351	-0.75028	-0.31662	0.18463	0.21973	-0.73639	0.15976	0.081024	0.10086	0.055237	-0.08194	0.020294	0.90073	0.072937	-0.002747	-0.033722
47.348	-0.003357	-0.35233	-0.21133	0.007477	0.005188	0.00351	0.031586	0.023193	-0.11108	-0.021362	0.063171	-0.003967	0.008545	-0.21271	0.43304	-0.003357	0.011292	-0.61096	-0.61356	0.15015	0.12985	-0.57709	0.23254	0.13001	0.11276	0.065155	-0.097809	0.020294	-0.7756	0.1207	-0.005341	-0.028229
47.349	-0.001373	-0.3157	-0.21164	0.009766	0.005798	-0.010681	0.026703	0.036774	-0.12665	0.021667	0.16785	-0.002899	-0.056152	-0.15869	0.42191	-0.008698	0.018616	-0.55801	-0.70602	0.063477	0.019989	-0.61111	0.31158	0.088348	0.008698	-0.012207	0.019684	0.11078	-0.96191	0.044556	-0.005951	-0.036163
47.35	-0.008698	-0.33585	-0.17761	-0.006409	0.00351	-0.020447	-0.014496	0.017395	-0.16251	0.014038	0.10757	-0.004883	-0.004883	0.011749	0.072632	-0.001526	-0.00824	-0.46127	-0.25482	0.03952	-0.036163	-0.62759	0.30273	-0.14572	-0.05249	-0.010834	-0.018616	0.002441	-0.29739	-0.060577	-0.007019	-0.035553
47.351	0.001221	-0.27268	-0.15213	-0.001831	0.001068	-0.014496	0.028076	0.019531	-0.1561	0.001526	-0.15915	-0.005493	0.055695	0.084839	0.36331	-0.003204	-0.005188	-0.31403	-0.33402	0.049591	-0.061646	-0.64163	0.12161	-0.1387	-0.024109	0.010681	-0.13062	-0.027924	0.59204	0.16602	-0.003662	-0.036774
47.352	0.000916	-0.27008	-0.17258	-0.006256	0.007935	-0.029297	0.11841	0.009308	-0.15732	-0.003815	-0.24948	-0.010834	0.077209	0.11414	0.168	-0.004425	0.014496	-0.035095	-0.38376	0.007629	0.07843	-0.55695	-0.13748	-0.16922	-0.037537	0.032043	-0.067902	-0.019684	0.73471	0.33203	-0.011902	-0.029297
